<svg fill="#000000" xmlns="http://www.w3.org/2000/svg"  viewBox="0 0 50 50" width="50px" height="50px"><rect width="6" height="8" x="40" y="26"/><rect width="6" height="8" x="40" y="16"/><path d="M40,14h6v-1c0-3.91-2.51-7.236-6-8.475V14z"/><path d="M22,14c-6.065,0-11,4.935-11,11c0,2.814,1.071,5.377,2.816,7.324C15.889,30.225,18.852,29,22,29 c3.14,0,6.114,1.222,8.188,3.32C31.93,30.373,33,27.812,33,25C33,18.935,28.065,14,22,14z M22,27.5c-2.481,0-4.5-2.019-4.5-4.5 s2.019-4.5,4.5-4.5s4.5,2.019,4.5,4.5S24.481,27.5,22,27.5z"/><path d="M38,4.059C37.671,4.022,37.338,4,37,4H13c-4.962,0-9,4.037-9,9v24c0,4.963,4.038,9,9,9h24c0.338,0,0.671-0.022,1-0.059 V4.059z M22,38c-7.168,0-13-5.832-13-13s5.832-13,13-13s13,5.832,13,13S29.168,38,22,38z"/><path d="M40,36v9.475c3.49-1.239,6-4.565,6-8.475v-1H40z"/></svg>