<svg fill="#000000" xmlns="http://www.w3.org/2000/svg"  viewBox="0 0 128 128" width="64px" height="64px"><path d="M124 121A3 3 0 1 0 124 127 3 3 0 1 0 124 121zM4 127h95c1.7 0 3-1.3 3-3v-1c0-1.7 1.3-3 3-3s3 1.3 3 3v1c0 1.7 1.3 3 3 3h3c1.7 0 3-1.3 3-3s-1.3-3-3-3h-.2c-.7-3-2.9-5.5-5.8-6.5V80.2l5.1 5.1c.6.6 1.3.9 2.1.9s1.6-.3 2.1-.9l8.5-8.5c1.2-1.2 1.2-3.1 0-4.2L72.1 18.9c-1.1-1.1-3.1-1.1-4.2 0L14.1 72.6c-1.2 1.2-1.2 3.1 0 4.2l8.5 8.5c.6.6 1.3.9 2.1.9s1.6-.3 2.1-.9L70 42.2l32 32v40.3c-2.9 1-5.1 3.5-5.8 6.5H84V80c0-1.7-1.3-3-3-3H59c-1.7 0-3 1.3-3 3v41H38V94c0-1.7-1.3-3-3-3s-3 1.3-3 3v7.4c-4.9 1.2-8.7 5-9.7 9.9-4.9 1-8.8 4.9-9.9 9.7H4c-1.7 0-3 1.3-3 3S2.3 127 4 127zM72.1 35.9C71.5 35.3 70.8 35 70 35s-1.5.3-2.1.9L24.7 79l-4.2-4.2L70 25.3l49.5 49.5-4.2 4.2L72.1 35.9zM64 101c1.7 0 3 1.3 3 3s-1.3 3-3 3-3-1.3-3-3S62.3 101 64 101zM25 117c1.7 0 3-1.3 3-3 0-2.8 1.6-5.2 4-6.3V121H18.7C19.8 118.6 22.2 117 25 117z"/></svg>