<svg fill="#000000" xmlns="http://www.w3.org/2000/svg"  viewBox="0 0 64 64" width="64px" height="64px"><path fill="none" stroke="#000000" stroke-linecap="round" stroke-miterlimit="10" stroke-width="2" d="M12.577,57	C9.51,57,7,54.49,7,51.423V12.577C7,9.51,9.51,7,12.577,7h38.847C54.491,7,57,9.509,57,12.576v38.849C57,54.491,54.491,57,51.424,57	H12.577z"/><path fill="none" stroke="#000000" stroke-linejoin="round" stroke-miterlimit="10" stroke-width="2" d="M41.739,46.089	c0.921,1.538,1.922,3.011,4.041,3.011c1.78,0,2.715-0.91,2.715-2.168c0-1.507-0.966-2.041-2.926-2.917l-1.074-0.471	c-3.1-1.351-5.161-3.044-5.161-6.621c0-3.296,2.455-5.805,6.292-5.805c2.732,0,4.696,0.972,6.111,3.519l-3.346,2.198	c-0.736-1.351-1.531-1.883-2.766-1.883c-1.259,0-2.056,0.817-2.056,1.883c0,1.319,0.798,1.852,2.642,2.669l1.074,0.471	c3.652,1.6,5.713,3.232,5.713,6.903C53,50.832,49.961,53,45.88,53c-3.991,0-6.258-2.058-7.519-4.607L41.739,46.089z"/><path fill="none" stroke="#000000" stroke-linejoin="round" stroke-miterlimit="10" stroke-width="2" d="M23.667,46.201	c0.708,1.239,1.785,2.192,3.333,2.192c1.481,0,2.333-0.571,2.333-2.794V31.118H34v15.182C34,50.904,31.265,53,27.273,53	c-3.607,0-6.211-2.387-7.273-4.607L23.667,46.201z"/><path d="M17,12c-0.552,0-1,0.448-1,1v2c0,0.552,0.448,1,1,1s1-0.448,1-1v-2C18,12.448,17.552,12,17,12z M12,12c-0.552,0-1,0.448-1,1	v2c0,0.552,0.448,1,1,1s1-0.448,1-1v-2C13,12.448,12.552,12,12,12z M32,12c-0.552,0-1,0.448-1,1v2c0,0.552,0.448,1,1,1s1-0.448,1-1	v-2C33,12.448,32.552,12,32,12z M37,12c-0.552,0-1,0.448-1,1v2c0,0.552,0.448,1,1,1s1-0.448,1-1v-2C38,12.448,37.552,12,37,12z M42,12c-0.552,0-1,0.448-1,1v2c0,0.552,0.448,1,1,1s1-0.448,1-1v-2C43,12.448,42.552,12,42,12z M47,12c-0.552,0-1,0.448-1,1v2	c0,0.552,0.448,1,1,1s1-0.448,1-1v-2C48,12.448,47.552,12,47,12z M52,12c-0.552,0-1,0.448-1,1v2c0,0.552,0.448,1,1,1s1-0.448,1-1v-2	C53,12.448,52.552,12,52,12z M22,12c-0.552,0-1,0.448-1,1v2c0,0.552,0.448,1,1,1s1-0.448,1-1v-2C23,12.448,22.552,12,22,12z M27,12	c-0.552,0-1,0.448-1,1v2c0,0.552,0.448,1,1,1s1-0.448,1-1v-2C28,12.448,27.552,12,27,12z"/></svg>